<svg xmlns="http://www.w3.org/2000/svg" width="256" height="256" viewBox="0 0 100 100"><rect width="100" height="100" rx="20" fill="#000000"></rect><path fill="#f73232" d="M10.39 65L10.39 35Q10.39 33.77 10.86 32.67Q11.33 31.57 12.15 30.77Q12.97 29.96 14.07 29.48Q15.17 28.99 16.40 28.99L16.40 28.99L39.19 28.99Q40.42 28.99 41.52 29.48Q42.62 29.96 43.44 30.77Q44.26 31.57 44.73 32.67Q45.20 33.77 45.20 35L45.20 35L45.20 40.42L39.19 40.42L39.19 35L16.40 35L16.40 65L39.19 65L39.19 59.61L45.20 59.61L45.20 65Q45.20 66.23 44.73 67.33Q44.26 68.43 43.44 69.25Q42.62 70.07 41.52 70.54Q40.42 71.01 39.19 71.01L39.19 71.01L16.40 71.01Q15.17 71.01 14.07 70.54Q12.97 70.07 12.15 69.25Q11.33 68.43 10.86 67.33Q10.39 66.23 10.39 65L10.39 65ZM67.40 28.99L73.41 28.99L89.61 71.01L83.60 71.01L79.88 61.34L60.93 61.34L57.21 71.01L51.20 71.01L67.40 28.99ZM70.42 36.82L63.21 55.33L77.57 55.33L70.42 36.82Z"></path></svg>